<svg id="Layer_1" data-name="Layer 1" xmlns="http://www.w3.org/2000/svg" xmlns:xlink="http://www.w3.org/1999/xlink" viewBox="0 0 554.76 457.17"><defs><style>.cls-1{fill:url(#linear-gradient);}.cls-2{fill:#5fb378;}.cls-3{fill:#a8c3a0;}.cls-4{fill:#728ca4;}</style><linearGradient id="linear-gradient" x1="459.87" y1="301.24" x2="591.95" y2="664.11" gradientUnits="userSpaceOnUse"><stop offset="0" stop-color="#68be7c"/><stop offset="0.5" stop-color="#066d44"/></linearGradient></defs><title>novageSVG</title><path class="cls-1" d="M524,684.24s-41.66-24.14-52.36-29.83-55.33-30.51-62.16-36c-13.92-11.14-28.29-19.9-42.94-36.6a186.63,186.63,0,0,1-27.64-41.29,178.8,178.8,0,0,1-17.07-63.72,190.59,190.59,0,0,1-.08-29.91,191.94,191.94,0,0,1,47.89-112.85s0,31.65,7.06,46S395.39,414,411.1,428.79s49.41,48.72,49.41,48.72,31.65,31.65,48.27,71.72S526.08,615,526.08,615L530,650.77a156.25,156.25,0,0,1,15.71-47.59,170.92,170.92,0,0,1,19.88-29.37c8.44-10.11,14.89-15.57,30-28.68,27.41-23.8,41.19-35.83,46-41.05,11.79-12.72,22.86-24.88,30.86-44.41,3.15-7.69,9-22.28,8.43-41.91-.19-7.16-.68-20.19-7.91-35a78.25,78.25,0,0,0-24.12-28.68,79.64,79.64,0,0,0-41.36-14.95A89.45,89.45,0,0,0,582,342.82,88.16,88.16,0,0,0,568.66,348L551.35,332a107.81,107.81,0,0,1,110.2,12.75,125.14,125.14,0,0,1,51.77,92.47,185.59,185.59,0,0,1-9.65,73.05,174.85,174.85,0,0,1-17.23,35.87,178.68,178.68,0,0,1-21.56,27.43c-10.18,10.95-18.74,17.91-30.43,27.32-8.58,6.91-20.09,15.67-34.3,25.12a299.52,299.52,0,0,0-67.24,59.57s-6.48-24.81-15.76-44.39-30.91-51-30.91-51A401.54,401.54,0,0,0,448,544.67c-9.94-10.16-16.66-15.9-30.28-30-12.29-12.76-21.83-23.68-28-31a194.09,194.09,0,0,1-33.92-74.91,120.57,120.57,0,0,0,3.34,31.5,131.63,131.63,0,0,0,7.37,21.55,149.24,149.24,0,0,0,7.5,15c9,12.35,18.31,25.78,30.06,38.24,18.44,19.58,46,49.18,46,49.18s31.42,36.89,43.25,56.92S512.19,651.68,524,684.24Z" transform="translate(-262.62 -311.42)"/><path class="cls-2" d="M380.37,354.56s-.46,12.53,2.73,16.62a103.18,103.18,0,0,1,14.07-16.74,106.94,106.94,0,0,1,18.41-14.07,94.82,94.82,0,0,1,18.89-9.1,104.2,104.2,0,0,1,66.72,1.21c8.23,3.13,25.91,9.84,37.87,27.55a64,64,0,0,1,6.45,12.24c1.67,6.23.57,11-1.7,11.82-.29.12-1.81.61-4.52-1.52L524,364.66c-11.58-14.11-29.67-20.78-46.83-17.15-21.24,4.48-30.92,22.6-32.2,25.1-1.88,5.06-6.69,20-1,37.28A58.2,58.2,0,0,0,459,433.26c10.64,10.09,22.07,13.33,28.51,15.07a79.8,79.8,0,0,0,32.18,1.51,81.35,81.35,0,0,0,32.51-12.63,50.42,50.42,0,0,0,18.06-21.4c7.28-16.3,3.26-31.71,1.67-37.8-5-19.25-17.31-30.83-24.89-37.79-23.94-22-51.74-26.1-61.93-27.47-9.79-1.32-32.24-4.06-58.29,6.37A110.27,110.27,0,0,0,380.37,354.56Z" transform="translate(-262.62 -311.42)"/><path class="cls-3" d="M604.38,744.72c-27.09,16.32-93.57,23.53-93.57,23.53s-35.52,2.27-69.45-5-51.91-16.85-61.47-21.63a263.91,263.91,0,0,1-52.36-34.37,254.27,254.27,0,0,1-28.19-27.84,212.15,212.15,0,0,1-19.84-26.46,200.66,200.66,0,0,1-16.86-33.14,6.89,6.89,0,0,1,10.4-6.68c.36.36.88.91,1.47,1.63a24,24,0,0,1,3.54,6.11c.36.85,1.67,3.27,4.28,8.08a87,87,0,0,0,6.72,10.45A114.55,114.55,0,0,0,305,655l0,0c20.06,16.42,44.95,28.85,49.33,30.59,5.7,2.28,5.47,0,5.47,0l-9.56-8.42C329.81,659,331.63,658.51,325.25,651s-3.18-13.89-3.18-13.89,4.45-5.13,9.61-.17l.18.17c1.88,1.88,6.44,5.24,11.52,8.77,9,6.27,19.67,13.09,19.67,13.09a96.37,96.37,0,0,0,11.06,5.87h0c6.24,2.82,14.21,5.62,21.49,5.74a76.58,76.58,0,0,1,26.4,5.23c31,9.11,54.41,59.88,54.41,59.88s3.65,1.6,11.62,5.47,26.18,6.14,45.54,7.51S604.38,744.72,604.38,744.72Z" transform="translate(-262.62 -311.42)"/><path class="cls-4" d="M374.11,664.84A96.37,96.37,0,0,1,363.05,659s-10.64-6.82-19.67-13.09c-1.11-4.78-1.73-8.77-1.73-8.77,1.93-6.18,8.65-2.5,8.65-2.5Z" transform="translate(-262.62 -311.42)"/><path class="cls-4" d="M354.39,685.6c-4.38-1.74-29.27-14.17-49.33-30.59l0,0c-.65-.82-23-28.91-19.86-35.42a5,5,0,0,1,9.45-1.92c4.13,6.26,7.81,11.48,10.73,15.51,5.85,8,8.14,10.55,9.88,12.3.66.67,2.14,2.12,5,5l5.19,5.24c-1-1.36-17.44-24.72-15.67-31.13a7.11,7.11,0,0,1,2.75-4.12,6.33,6.33,0,0,1,4-.84,8.21,8.21,0,0,1,1.63.88,9.22,9.22,0,0,1,2.56,2.68c.51.78,4.44,5.68,11,13.76-5.16-5-9.61.17-9.61.17s-3.2,6.38,3.18,13.89,4.56,8,25.05,26.18l9.56,8.42S360.09,687.88,354.39,685.6Z" transform="translate(-262.62 -311.42)"/><path class="cls-3" d="M817.36,582a201.05,201.05,0,0,1-16.86,33.14,211.09,211.09,0,0,1-19.84,26.45,252.48,252.48,0,0,1-28.19,27.84,263.27,263.27,0,0,1-52.36,34.38c-9.56,4.78-27.55,14.34-61.47,21.62s-69.45,5-69.45,5-66.48-7.2-93.57-23.52c0,0,51.45,5.32,70.8,3.94S584,707.17,592,703.3s11.62-5.46,11.62-5.46S627,647.06,658,638a76.72,76.72,0,0,1,26.4-5.24c7.28-.11,15.25-2.91,21.49-5.73h0A94.52,94.52,0,0,0,717,621.11s10.64-6.81,19.67-13.09c5.08-3.53,9.64-6.88,11.52-8.76l.18-.17c5.16-5,9.61.17,9.61.17s3.2,6.37-3.18,13.88-4.56,8-25,26.18l-9.56,8.43s-.23,2.27,5.47,0c4.38-1.75,29.27-14.17,49.33-30.6h0a114.6,114.6,0,0,0,16-15.61,87.79,87.79,0,0,0,6.72-10.44c2.61-4.82,3.92-7.23,4.28-8.08a24,24,0,0,1,3.54-6.12c.59-.71,1.11-1.26,1.47-1.62a6.89,6.89,0,0,1,10.4,6.68Z" transform="translate(-262.62 -311.42)"/><path class="cls-4" d="M738.35,599.26s-.62,4-1.73,8.76c-9,6.28-19.67,13.09-19.67,13.09A94.52,94.52,0,0,1,705.89,627l23.81-30.23S736.42,593.08,738.35,599.26Z" transform="translate(-262.62 -311.42)"/><path class="cls-4" d="M775,617.14h0c-20.06,16.43-45,28.85-49.33,30.6-5.7,2.27-5.47,0-5.47,0l9.56-8.43c20.49-18.21,18.67-18.66,25-26.18s3.18-13.88,3.18-13.88-4.45-5.13-9.61-.17c6.55-8.08,10.48-13,11-13.76a9.33,9.33,0,0,1,2.56-2.69,9.43,9.43,0,0,1,1.63-.88,6.28,6.28,0,0,1,4,.85,7.11,7.11,0,0,1,2.75,4.12c1.77,6.41-14.7,29.76-15.67,31.13l5.19-5.24c2.87-2.89,4.35-4.35,5-5,1.74-1.74,4-4.27,9.88-12.29,2.92-4,6.6-9.25,10.73-15.51a5,5,0,0,1,9.45,1.92C798,588.23,775.61,616.32,775,617.14Z" transform="translate(-262.62 -311.42)"/></svg>